<?xml version="1.0" standalone="no"?><svg xmlns="http://www.w3.org/2000/svg" viewBox="0 0 1440 320"><path fill="#0099ff" fill-opacity="1" d="M0,192L20,192C40,192,80,192,120,192C160,192,200,192,240,213.3C280,235,320,277,360,277.3C400,277,440,235,480,192C520,149,560,107,600,128C640,149,680,235,720,266.7C760,299,800,277,840,234.7C880,192,920,128,960,122.7C1000,117,1040,171,1080,181.3C1120,192,1160,160,1200,138.7C1240,117,1280,107,1320,128C1360,149,1400,203,1420,229.3L1440,256L1440,320L1420,320C1400,320,1360,320,1320,320C1280,320,1240,320,1200,320C1160,320,1120,320,1080,320C1040,320,1000,320,960,320C920,320,880,320,840,320C800,320,760,320,720,320C680,320,640,320,600,320C560,320,520,320,480,320C440,320,400,320,360,320C320,320,280,320,240,320C200,320,160,320,120,320C80,320,40,320,20,320L0,320Z"></path></svg>