<?xml version="1.0" standalone="no"?><svg xmlns="http://www.w3.org/2000/svg" viewBox="0 0 1440 320"><path fill="#b1d18a" fill-opacity="1" d="M0,128L75.8,224L151.6,128L227.4,128L303.2,192L378.9,96L454.7,128L530.5,256L606.3,256L682.1,64L757.9,32L833.7,32L909.5,32L985.3,160L1061.1,256L1136.8,96L1212.6,64L1288.4,192L1364.2,128L1440,192L1440,320L1364.2,320L1288.4,320L1212.6,320L1136.8,320L1061.1,320L985.3,320L909.5,320L833.7,320L757.9,320L682.1,320L606.3,320L530.5,320L454.7,320L378.9,320L303.2,320L227.4,320L151.6,320L75.8,320L0,320Z"></path></svg>